<mxfile host="app.diagrams.net" modified="2021-07-29T16:58:26.016Z" agent="5.0 (Windows NT 10.0; Win64; x64) AppleWebKit/537.36 (KHTML, like Gecko) Chrome/92.0.4515.107 Safari/537.36" etag="0qoSBPoQkAJSskMm3r2K" version="14.9.2" type="github">
  <diagram id="YOymZpYFyauVE4nPvg2r" name="Page-1">
    <mxGraphModel dx="1038" dy="547" grid="1" gridSize="10" guides="1" tooltips="1" connect="1" arrows="1" fold="1" page="1" pageScale="1" pageWidth="850" pageHeight="1100" math="0" shadow="0">
      <root>
        <mxCell id="0" />
        <mxCell id="1" parent="0" />
        <mxCell id="hNDGN-cJ0JobfmCHhORa-1" value="" style="rounded=1;whiteSpace=wrap;html=1;" vertex="1" parent="1">
          <mxGeometry x="150" y="90" width="490" height="320" as="geometry" />
        </mxCell>
        <mxCell id="hNDGN-cJ0JobfmCHhORa-2" value="" style="rounded=1;whiteSpace=wrap;html=1;" vertex="1" parent="1">
          <mxGeometry x="180" y="140" width="430" height="220" as="geometry" />
        </mxCell>
        <mxCell id="hNDGN-cJ0JobfmCHhORa-3" value="" style="rounded=1;whiteSpace=wrap;html=1;" vertex="1" parent="1">
          <mxGeometry x="210" y="180" width="370" height="140" as="geometry" />
        </mxCell>
        <mxCell id="hNDGN-cJ0JobfmCHhORa-4" value="C1" style="ellipse;whiteSpace=wrap;html=1;aspect=fixed;" vertex="1" parent="1">
          <mxGeometry x="330" y="195" width="110" height="110" as="geometry" />
        </mxCell>
        <mxCell id="hNDGN-cJ0JobfmCHhORa-5" value="POD" style="text;html=1;strokeColor=none;fillColor=none;align=center;verticalAlign=middle;whiteSpace=wrap;rounded=0;" vertex="1" parent="1">
          <mxGeometry x="365" y="150" width="40" height="20" as="geometry" />
        </mxCell>
        <mxCell id="hNDGN-cJ0JobfmCHhORa-6" value="REPLICA SET" style="text;html=1;strokeColor=none;fillColor=none;align=center;verticalAlign=middle;whiteSpace=wrap;rounded=0;" vertex="1" parent="1">
          <mxGeometry x="337.5" y="110" width="95" height="20" as="geometry" />
        </mxCell>
        <mxCell id="hNDGN-cJ0JobfmCHhORa-7" value="SERVICE" style="text;html=1;strokeColor=none;fillColor=none;align=center;verticalAlign=middle;whiteSpace=wrap;rounded=0;" vertex="1" parent="1">
          <mxGeometry x="330" y="60" width="100" height="20" as="geometry" />
        </mxCell>
      </root>
    </mxGraphModel>
  </diagram>
</mxfile>
